<svg id="Layer_1" data-name="Layer 1" xmlns="http://www.w3.org/2000/svg" viewBox="0 0 496.42 106.41"><defs><style>.cls-1{fill:#002c40;}</style></defs><title>Prosoft</title><g id="prosoft"><path class="cls-1" d="M177.25,33.55q-11.17,0-17,9.78h-.19V34.7h-7.86v71.71h7.86V76.72h.19A16.45,16.45,0,0,0,175,85q10.41,0,16.4-7.41t6-19.74q0-11.08-5.32-17.68T177.25,33.55Zm8,39.33A14.11,14.11,0,0,1,164,74.1a14.58,14.58,0,0,1-4-10.33V56.91a17.49,17.49,0,0,1,4.18-12,13.92,13.92,0,0,1,11-4.77,12.54,12.54,0,0,1,10.26,4.65q3.8,4.65,3.79,12.85Q189.34,67.42,185.29,72.88Zm42.78-36.14a17.08,17.08,0,0,0-5.13,8.08h-.2V34.7h-7.86V83.81h7.86v-25q0-8.2,3.38-13t8.42-4.75a9.65,9.65,0,0,1,6,1.58V34.51a12.79,12.79,0,0,0-4.7-.67A11.66,11.66,0,0,0,228.07,36.74Zm46.25-3.19q-11.51,0-18.27,7t-6.76,19.33q0,11.37,6.5,18.25T273.17,85q11.18,0,17.82-7.08t6.64-18.82q0-12-6.16-18.76T274.32,33.55Zm11.16,39.86q-4.11,4.94-11.73,4.94t-11.94-5q-4.47-5-4.47-13.77,0-9.06,4.42-14.22t12-5.15q7.62,0,11.73,5t4.1,14.19Q289.58,68.47,285.48,73.41Zm55.44-11.68a20,20,0,0,0-4.42-3,59,59,0,0,0-5.85-2.56q-2.44-1-4.36-1.78A15.31,15.31,0,0,1,323,52.59a7,7,0,0,1-2-2.3,6.7,6.7,0,0,1-.7-3.22,5.68,5.68,0,0,1,.7-2.8,6.45,6.45,0,0,1,2-2.18A9.88,9.88,0,0,1,326,40.67a14.79,14.79,0,0,1,4-.5,22.21,22.21,0,0,1,12.47,3.55v-8A28.18,28.18,0,0,0,331,33.55a26.57,26.57,0,0,0-7,.91,19.67,19.67,0,0,0-6,2.71,14,14,0,0,0-4.22,4.46,11.68,11.68,0,0,0-1.59,6.12,13.35,13.35,0,0,0,.84,4.94,11.15,11.15,0,0,0,2.5,3.76,17.18,17.18,0,0,0,4.12,3A55.56,55.56,0,0,0,325.43,62q2.34.91,4.38,1.75a18.43,18.43,0,0,1,3.55,1.89,8.92,8.92,0,0,1,2.4,2.43,6,6,0,0,1,.89,3.33q0,6.9-10.36,6.91a23.3,23.3,0,0,1-14.15-4.75V82A27.87,27.87,0,0,0,325.28,85a30.3,30.3,0,0,0,7.34-.87,19.43,19.43,0,0,0,6.19-2.64A13.73,13.73,0,0,0,343.1,77a13.48,13.48,0,0,0,.62-11.46A11.54,11.54,0,0,0,340.92,61.73Zm42.46-28.18q-11.5,0-18.27,7t-6.76,19.33q0,11.37,6.5,18.25T382.23,85q11.17,0,17.82-7.08t6.65-18.82q0-12-6.17-18.76T383.38,33.55Zm11.16,39.86q-4.11,4.94-11.73,4.94t-11.94-5q-4.47-5-4.46-13.77,0-9.06,4.41-14.22t12-5.15q7.62,0,11.73,5t4.1,14.19Q398.64,68.47,394.54,73.41Zm35.29-58.88q-4.45,4.49-4.46,12.21v8H417v6.71h8.39v42.4h7.82V41.41H444.7V34.7H433.19V27.12q0-10.41,8.25-10.41a10.43,10.43,0,0,1,5.23,1.3v-7.1a15.35,15.35,0,0,0-5.71-.86A15.08,15.08,0,0,0,429.83,14.53Zm52.78,26.88V34.7H470.24V20.17l-7.87,2.54v12h-8.44v6.71h8.44V70.48q0,14.38,12.9,14.39a15.19,15.19,0,0,0,7.34-1.53V76.62a8.25,8.25,0,0,1-5.13,1.63q-3.89,0-5.56-2.11t-1.68-7V41.41Z"/></g><g id="P"><path class="cls-1" d="M34.58,36.58v-26h53v17l9.43.19V8.52A8.2,8.2,0,0,0,88.49,0H33.67a8.15,8.15,0,0,0-6.08,2.4,8.35,8.35,0,0,0-2.36,6.12V47.15h93.84V36.58Z"/></g><g id="P_copy" data-name="P copy"><path class="cls-1" d="M0,56.89V67.46H85.77v26H33v-17l-9.4-.18V95.52A8.32,8.32,0,0,0,26,101.64a8.23,8.23,0,0,0,6.1,2.4H86.68a8.12,8.12,0,0,0,6.06-2.4,8.41,8.41,0,0,0,2.35-6.12V56.89Z"/></g></svg>